<?xml version="1.0" encoding="UTF-8"?>
<svg xmlns="http://www.w3.org/2000/svg" width="1020" height="695" viewBox="270 145 1020 695" role="img" aria-labelledby="title desc">
  <title id="title">SpotFlow</title>
  <desc id="desc">SpotFlow with six-column dotted arrow. Vector outlines, without tagline.</desc>
  
  <g id="symbol" fill="#FFD600">
    <circle cx="604" cy="290" r="6"/>
    <circle cx="604" cy="337" r="6"/>
    <circle cx="604" cy="384" r="6"/>
    <circle cx="604" cy="431" r="6"/>
    <circle cx="604" cy="478" r="6"/>
    <circle cx="630" cy="290" r="6"/>
    <circle cx="630" cy="337" r="6"/>
    <circle cx="630" cy="384" r="6"/>
    <circle cx="630" cy="431" r="6"/>
    <circle cx="630" cy="478" r="6"/>
    <circle cx="674" cy="196" r="16"/>
    <circle cx="674" cy="233.6" r="16"/>
    <circle cx="674" cy="271.2" r="16"/>
    <circle cx="674" cy="308.8" r="16"/>
    <circle cx="674" cy="346.4" r="16"/>
    <circle cx="674" cy="384" r="16"/>
    <circle cx="674" cy="421.6" r="16"/>
    <circle cx="674" cy="459.2" r="16"/>
    <circle cx="674" cy="496.8" r="16"/>
    <circle cx="674" cy="534.4" r="16"/>
    <circle cx="674" cy="572" r="16"/>
    <circle cx="729.2" cy="233.6" r="16"/>
    <circle cx="729.2" cy="271.2" r="16"/>
    <circle cx="729.2" cy="308.8" r="16"/>
    <circle cx="729.2" cy="346.4" r="16"/>
    <circle cx="729.2" cy="384" r="16"/>
    <circle cx="729.2" cy="421.6" r="16"/>
    <circle cx="729.2" cy="459.2" r="16"/>
    <circle cx="729.2" cy="496.8" r="16"/>
    <circle cx="729.2" cy="534.4" r="16"/>
    <circle cx="784.4" cy="271.2" r="16"/>
    <circle cx="784.4" cy="308.8" r="16"/>
    <circle cx="784.4" cy="346.4" r="16"/>
    <circle cx="784.4" cy="384" r="16"/>
    <circle cx="784.4" cy="421.6" r="16"/>
    <circle cx="784.4" cy="459.2" r="16"/>
    <circle cx="784.4" cy="496.8" r="16"/>
    <circle cx="839.6" cy="308.8" r="16"/>
    <circle cx="839.6" cy="346.4" r="16"/>
    <circle cx="839.6" cy="384" r="16"/>
    <circle cx="839.6" cy="421.6" r="16"/>
    <circle cx="839.6" cy="459.2" r="16"/>
    <circle cx="894.8" cy="346.4" r="16"/>
    <circle cx="894.8" cy="384" r="16"/>
    <circle cx="894.8" cy="421.6" r="16"/>
    <circle cx="950" cy="384" r="16"/>
  </g>
  <g id="lettering" fill-rule="evenodd">
    <path aria-label="Spot" fill="#FFFFFF" d="M384 623.966C379.974 624.311 375.946 624.813 372 625.683C368.601 626.433 365.259 627.467 362 628.691C358.915 629.85 355.877 631.174 353 632.781C350.896 633.956 348.922 635.363 347 636.818C345.692 637.807 344.443 638.877 343.248 640C341.901 641.266 340.6 642.588 339.406 644C338.065 645.585 336.784 647.234 335.693 649C334.121 651.542 332.733 654.217 331.643 657C330.757 659.259 330.158 661.629 329.642 664C329.212 665.977 328.885 667.983 328.735 670C328.587 671.995 328.537 674.011 328.748 676C329.037 678.711 329.587 681.414 330.451 684C331.266 686.44 332.34 688.818 333.703 691C334.907 692.926 336.37 694.707 338 696.288C340.408 698.626 343.117 700.683 346 702.4C349.453 704.456 353.229 705.948 357 707.337L389 716.679C390.692 717.249 392.382 717.842 394 718.597C395.382 719.242 396.829 719.841 398 720.819C399.383 721.974 400.597 723.4 401.424 725C402.059 726.228 402.38 727.625 402.523 729C402.661 730.329 402.564 731.695 402.276 733C401.891 734.747 401.196 736.437 400.324 738C399.715 739.093 398.944 740.107 398.066 741C397.158 741.924 396.091 742.691 395 743.391C393.407 744.412 391.703 745.265 389.96 746C388.678 746.541 387.346 746.965 386 747.316C384.358 747.743 382.685 748.075 381 748.271C379.012 748.502 377.002 748.524 375 748.528C372.665 748.533 370.323 748.493 368 748.257C366.319 748.086 364.651 747.79 363 747.431C361.65 747.136 360.304 746.8 359 746.343C357.286 745.743 355.58 745.077 354 744.182C351.919 743.004 349.952 741.597 348.172 740C346.993 738.942 345.933 737.742 345 736.462C344.44 735.694 343.961 734.863 343.562 734C342.481 731.665 341 726.719 341 726.719L313 736.685C312.292 737.039 311.022 738 311.022 738C311.022 738 311.221 740.686 311.497 742C311.784 743.364 312.201 744.705 312.717 746C313.821 748.768 315.134 751.471 316.711 754C318.041 756.135 319.532 758.198 321.287 760C323.59 762.364 326.239 764.399 329 766.207C331.518 767.856 334.223 769.232 337 770.392C339.906 771.607 342.946 772.501 346 773.272C349.617 774.185 353.294 774.901 357 775.327C359.983 775.671 362.997 775.698 366 775.728L382 775.329C385.709 774.942 389.385 774.206 393 773.29C397.076 772.257 401.147 771.088 405 769.404C408.851 767.722 412.552 765.646 416 763.243C418.63 761.41 421.076 759.294 423.315 757C425.116 755.156 426.725 753.118 428.193 751C429.073 749.73 429.817 748.369 430.533 747C431.556 745.046 432.549 743.066 433.32 741C434.168 738.726 434.909 736.391 435.325 734C435.897 730.709 436.017 727.34 435.979 724C435.955 721.992 435.806 719.975 435.446 718C435.012 715.617 434.412 713.242 433.495 711C432.629 708.885 431.529 706.843 430.178 705C428.697 702.979 426.862 701.228 425 699.551C423.438 698.144 421.775 696.834 420 695.708C417.467 694.1 414.752 692.779 412 691.585C408.428 690.035 404.706 688.849 401 687.657L375 680.2C372.219 679.111 369.442 677.885 367 676.165C366.144 675.562 365.342 674.845 364.724 674C363.849 672.803 363.103 671.447 362.781 670C362.419 668.373 362.503 666.63 362.852 665C363.155 663.58 363.838 662.25 364.578 661C365.223 659.91 366.021 658.901 366.912 658C367.837 657.064 368.875 656.224 370 655.541C371.871 654.406 373.907 653.514 376 652.873C378.59 652.081 381.299 651.655 384 651.452C387.658 651.177 391.372 651.194 395 651.737C397.737 652.146 400.451 652.88 403 653.958C404.779 654.711 406.534 655.63 408 656.887C409.668 658.317 411.091 660.081 412.161 662C413.366 664.157 413.217 666.951 414.598 669C414.945 669.516 416 670.23 416 670.23L440 661.28C441.609 660.594 444.728 659 444.728 659C444.728 659 444.158 654.248 443.39 652C442.181 648.463 440.444 645.072 438.314 642C437.283 640.512 435.958 639.242 434.641 638C432.563 636.04 430.407 634.122 428 632.585C424.876 630.591 421.482 628.994 418 627.725C414.125 626.312 410.06 625.428 406 624.701C402.7 624.11 399.35 623.753 396 623.621C392.001 623.464 387.987 623.625 384 623.966ZM766 635.991L736 637.481C735.751 637.579 735.526 637.771 735.388 638L730.347 661C729.975 662.354 729.024 665 729.024 665L711 665.322C711 665.322 710.588 665.739 710.465 666L705.525 689C705.471 689.331 705.413 690 705.413 690C705.413 690 706 690.624 706 690.624L723.735 691C723.735 691 723.494 693.675 723.278 695L712.651 745C712.383 747.653 712.306 750.365 712.719 753C713.098 755.415 713.928 757.759 714.905 760C715.365 761.056 715.968 762.051 716.622 763C717.63 764.462 718.684 765.927 720 767.12C721.782 768.735 723.851 770.045 726 771.124C727.897 772.077 729.955 772.692 732 773.263C733.639 773.72 735.31 774.088 737 774.285C740.975 774.747 744.999 774.717 749 774.642C751.004 774.604 753.014 774.509 755 774.238C758.71 773.733 766 771.966 766 771.966L770.94 748C770.94 748 770 746.844 770 746.844C770 746.844 762.679 747.747 759 747.757C756.325 747.764 753.543 747.966 751 747.135C749.713 746.715 748.514 745.946 747.546 745C746.693 744.166 746.014 743.117 745.595 742C745.122 740.739 745.032 739.347 745.026 738C745.018 736.319 745.384 734.653 745.691 733L751.193 710L754.853 692C755.11 691.492 756 690.736 756 690.736L783 690.444L788.484 666C788.484 666 788 665.374 788 665.374C788 665.374 787.334 665.3 787 665.283L760.843 665C760.843 665 760.555 664.348 760.542 664L766.403 638C766.469 637.668 766.634 637.333 766.575 637C766.508 636.619 766 635.991 766 635.991ZM518 662.942C515.631 663.342 513.278 663.899 511 664.663C509.28 665.24 507.602 665.962 506 666.813C502.853 668.485 499.839 670.43 497 672.584C495.221 673.934 492 677.042 492 677.042C492 677.042 491.836 676.351 491.843 676C491.916 672.605 493.785 666 493.785 666C493.785 666 493 665.238 493 665.238L466 665.233C465.666 665.248 465 665.324 465 665.324C465 665.324 464.58 665.738 464.458 666L454.186 717L434.686 807C434.711 807.27 434.811 807.556 435 807.75C435.255 808.011 435.643 808.122 436 808.197L465.161 808C465.645 807.821 466.076 807.442 466.343 807L470.132 790L475.847 763C476.154 761.935 477 759.882 477 759.882C477 759.882 479.286 763.438 480.695 765C481.702 766.116 482.872 767.081 484.061 768C485.626 769.211 487.249 770.373 489 771.297C491.225 772.471 493.59 773.394 496 774.115C497.955 774.7 499.973 775.088 502 775.323C504.982 775.669 507.999 775.668 511 775.615C513.004 775.58 515.014 775.483 517 775.209C520.037 774.789 523.06 774.185 526 773.317C528.74 772.508 531.413 771.452 534 770.239C536.42 769.105 538.785 767.824 541 766.327C544.194 764.17 547.198 761.716 550 759.069C552.31 756.887 554.411 754.481 556.397 752C557.416 750.726 558.344 749.378 559.218 748C560.654 745.735 561.975 743.393 563.188 741C564.344 738.718 565.404 736.383 566.333 734C567.099 732.036 567.787 730.037 568.331 728C569.21 724.714 569.924 721.373 570.367 718C570.889 714.027 571.14 710.007 571.092 706C571.06 703.324 570.803 700.648 570.416 698C570.17 696.315 569.808 694.646 569.371 693C568.831 690.968 568.236 688.941 567.429 687C566.565 684.923 565.537 682.906 564.343 681C563.237 679.234 561.967 677.564 560.589 676C558.873 674.052 557.045 672.175 555 670.575C553.453 669.364 551.729 668.388 550 667.455C548.062 666.409 546.086 665.396 544 664.689C540.764 663.592 537.393 662.841 534 662.434C531.021 662.078 527.998 662.17 525 662.286C522.658 662.376 520.311 662.552 518 662.942ZM636 662.932C631.938 663.625 627.903 664.578 624 665.898C620.901 666.946 617.888 668.272 615 669.809C611.858 671.481 608.891 673.478 606 675.554C604.263 676.801 602.574 678.126 601 679.575C599.164 681.265 597.418 683.065 595.842 685C593.535 687.832 591.445 690.853 589.591 694C587.327 697.842 585.236 701.822 583.679 706C582.235 709.874 581.328 713.941 580.54 718C580.156 719.979 579.915 721.989 579.772 724C579.582 726.66 579.517 729.336 579.651 732C579.787 734.681 580.037 737.372 580.584 740C581.294 743.41 582.232 746.804 583.616 750C584.687 752.472 586.137 754.774 587.653 757C588.853 758.761 590.19 760.436 591.638 762C592.678 763.123 593.799 764.18 595 765.129C596.571 766.37 598.271 767.45 600 768.46C601.936 769.591 603.923 770.658 606 771.503C608.912 772.686 611.927 773.656 615 774.315C618.611 775.09 622.311 775.467 626 775.638C629.997 775.825 634.015 775.682 638 775.319C640.016 775.136 642.021 774.806 644 774.381C646.704 773.801 649.393 773.109 652 772.187C655.087 771.094 658.118 769.804 661 768.248C664.151 766.548 667.155 764.558 670 762.385C672.942 760.137 675.817 757.75 678.295 755C681.32 751.645 683.924 747.895 686.212 744C688.264 740.508 689.932 736.785 691.374 733C692.611 729.75 693.589 726.394 694.347 723C694.862 720.697 695.199 718.351 695.411 716C695.65 713.343 695.676 710.668 695.641 708C695.607 705.33 695.63 702.637 695.206 700C694.658 696.591 693.76 693.215 692.5 690C691.402 687.197 689.946 684.527 688.31 682C687.158 680.22 685.801 678.571 684.377 677C683.019 675.501 681.596 674.04 680 672.799C676.9 670.386 673.563 668.217 670 666.563C667.141 665.235 664.075 664.355 661 663.661C657.72 662.921 654.356 662.551 651 662.333C648.006 662.139 644.996 662.206 642 662.354C639.993 662.452 637.981 662.593 636 662.932ZM510 689.914C507.947 690.36 505.93 691.017 504 691.848C502.254 692.601 500.584 693.543 499 694.594C497.583 695.533 496.226 696.579 495 697.758C493.025 699.657 491.201 701.74 489.651 704C488.58 705.561 487.747 707.279 486.957 709C486.064 710.947 485.245 712.941 484.656 715C484.096 716.959 483.701 718.973 483.495 721C483.226 723.653 483.134 726.347 483.406 729C483.616 731.037 484.046 733.067 484.723 735C485.214 736.403 485.903 737.741 486.692 739C487.591 740.433 488.613 741.811 489.816 743C490.765 743.939 491.88 744.703 493 745.429C493.955 746.049 494.944 746.637 496 747.063C497.603 747.71 499.294 748.162 501 748.437C502.977 748.757 504.998 748.805 507 748.75C509.011 748.695 511.037 748.543 513 748.105C515.065 747.644 517.077 746.917 519 746.036C520.753 745.233 522.419 744.23 524 743.125C525.338 742.191 526.594 741.134 527.768 740C529.372 738.45 530.873 736.782 532.214 735C532.925 734.055 533.558 733.047 534.109 732C535.29 729.753 536.335 727.418 537.108 725C538.043 722.076 538.689 719.047 539.064 716C539.267 714.345 539.312 712.665 539.218 711C539.104 708.982 538.879 706.95 538.35 705C537.879 703.264 537.138 701.601 536.317 700C535.778 698.949 535.178 697.915 534.432 697C533.431 695.773 532.275 694.654 531 693.714C529.466 692.583 527.765 691.659 526 690.938C524.4 690.284 522.708 689.824 521 689.559C519.022 689.253 517 689.251 515 689.329C513.323 689.395 511.64 689.557 510 689.914ZM637 689.821C635.636 690.046 634.294 690.428 633 690.913C630.92 691.693 628.886 692.641 627 693.815C625.204 694.934 623.513 696.247 622 697.726C620.376 699.315 618.922 701.096 617.683 703C616.054 705.504 614.781 708.238 613.643 711C612.842 712.944 612.167 714.951 611.696 717C611.244 718.968 611.014 720.987 610.861 723C610.734 724.662 610.671 726.338 610.791 728C610.937 730.02 611.201 732.05 611.749 734C612.041 735.041 612.483 736.04 612.979 737C613.843 738.671 614.794 740.323 616 741.766C616.871 742.808 617.898 743.73 619 744.523C620.545 745.636 622.246 746.545 624 747.286C624.963 747.693 625.973 748.002 627 748.198C628.971 748.573 630.993 748.673 633 748.689C634.67 748.703 636.351 748.628 638 748.362C639.7 748.088 641.375 747.633 643 747.062C644.379 746.578 645.738 746.005 647 745.268C649.07 744.059 651.018 742.617 652.787 741C654.102 739.798 655.271 738.431 656.333 737C657.733 735.114 658.973 733.099 660.028 731C660.994 729.076 661.792 727.06 662.418 725C663.212 722.391 663.759 719.701 664.137 717C664.368 715.346 664.465 713.67 664.467 712C664.47 710.33 664.432 708.646 664.152 707C663.802 704.952 663.261 702.917 662.458 701C661.865 699.584 661.103 698.224 660.176 697C659.266 695.797 658.165 694.735 657 693.776C656.074 693.015 655.08 692.315 654 691.795C652.106 690.884 650.062 690.261 648 689.852C646.36 689.527 644.672 689.474 643 689.459C640.996 689.441 638.977 689.495 637 689.821Z"/>
    <path aria-label="Flow" fill="#FFD600" d="M938 626.827C937.442 627.038 936.96 627.491 936.649 628C935.933 629.172 935.979 630.663 935.664 632L904.254 772C904.254 772 904.709 772.44 905 772.533L933 772.466C933.333 772.469 933.686 772.601 934 772.488C934.415 772.338 934.774 772 935 771.621L955.636 679L967.756 628C967.788 627.668 967.716 627 967.716 627C967.716 627 967.264 626.675 967 626.609L938 626.827ZM819 627.904L808.363 678L790.787 754C790.247 756.653 789.958 759.356 789.374 762C788.631 765.368 786.716 772 786.716 772C786.716 772 787.537 772.514 788 772.62L818 772.553C818.384 772.458 819.051 772 819.051 772L832 716.427L891 716.034C891.667 716.021 893 715.971 893 715.971C893 715.971 893.39 715.344 893.518 715L899.44 689C899.423 688.649 899.107 688 899.107 688L839 687.721C839 687.721 838.305 687 838.305 687C838.305 687 838.481 685.663 838.604 685L844.823 657C845.089 656.604 845.545 656.327 846 656.184L912 656C912 656 912.807 654.709 913.073 654L919 627.973C919 627.973 918.391 627.38 918 627.254L820 627.383C819.635 627.473 819 627.904 819 627.904ZM1016 662.863C1011.932 663.432 1007.906 664.389 1004 665.66C1000.903 666.668 997.887 667.958 995 669.467C991.506 671.293 988.104 673.35 985 675.781C981.887 678.219 979.034 681.009 976.449 684C973.504 687.409 970.84 691.093 968.596 695C966.229 699.12 964.275 703.5 962.748 708C961.428 711.892 960.521 715.935 959.92 720C959.481 722.973 959.374 725.994 959.361 729C959.35 731.67 959.458 734.35 959.79 737C960.044 739.023 960.476 741.025 960.983 743C961.504 745.032 962.098 747.053 962.878 749C963.706 751.068 964.7 753.075 965.822 755C966.432 756.046 967.1 757.067 967.872 758C970.02 760.598 972.402 763.026 975 765.174C976.859 766.711 978.916 768.003 981 769.218C982.287 769.968 983.623 770.644 985 771.213C987.922 772.419 990.917 773.502 994 774.199C996.949 774.865 999.98 775.171 1003 775.321C1007.312 775.535 1011.651 775.426 1015.947 775C1019.332 774.664 1022.711 774.113 1026 773.243C1029.765 772.248 1033.451 770.907 1037 769.303C1040.123 767.892 1043.173 766.269 1046 764.331C1049.228 762.118 1052.239 759.565 1055 756.791C1057.686 754.092 1060.083 751.101 1062.293 748C1063.424 746.412 1064.4 744.715 1065.327 743C1066.733 740.4 1068.044 737.741 1069.148 735C1070.329 732.068 1071.369 729.067 1072.131 726C1073.108 722.063 1073.706 718.032 1074.148 714C1074.294 712.673 1074.39 711.335 1074.356 710C1074.255 705.98 1073.864 701.953 1073.126 698C1072.682 695.622 1072.082 693.257 1071.212 691C1069.869 687.514 1068.21 684.117 1066.151 681C1064.966 679.207 1063.504 677.6 1062 676.065C1060.759 674.797 1059.42 673.618 1058 672.554C1055.156 670.424 1052.202 668.382 1049 666.841C1046.141 665.466 1043.091 664.46 1040 663.747C1036.073 662.841 1032.027 662.419 1028 662.272C1023.998 662.125 1019.966 662.307 1016 662.863ZM1084 665.228C1083.648 665.366 1083.17 666 1083.17 666L1091.862 755L1093.608 772C1093.687 772.175 1094 772.423 1094 772.423L1121 772.487C1121.509 772.406 1122.074 772.332 1122.468 772L1140.656 738L1157 709.239C1157 709.239 1157.454 709.706 1157.574 710C1158.212 711.556 1158.043 713.33 1158.236 715L1163.884 772C1163.884 772 1164.596 772.46 1165 772.552L1191 772.319L1207.243 744L1237.119 690L1250 665.756C1250 665.756 1249.362 665.348 1249 665.265L1219 665.398L1192.583 717C1190.341 721.62 1186.152 731 1186.152 731C1186.152 731 1185 731.325 1185 731.325L1178.917 666C1178.917 666 1178.368 665.402 1178 665.275L1154 665.307C1154 665.307 1153.054 666.399 1152.656 667L1141.743 687L1118 731.929C1118 731.929 1116.99 731 1116.99 731L1113.606 666C1113.491 665.702 1113 665.259 1113 665.259C1113 665.259 1112.334 665.222 1112 665.215L1084 665.228ZM1015 689.863C1013.282 690.269 1011.6 690.864 1010 691.61C1008.242 692.43 1006.562 693.435 1005 694.585C1003.195 695.914 1001.504 697.419 1000 699.081C998.359 700.895 996.86 702.867 995.664 705C993.903 708.143 992.525 711.528 991.56 715C990.838 717.6 990.525 720.309 990.329 723C990.136 725.66 990.094 728.349 990.387 731C990.575 732.695 990.896 734.394 991.469 736C991.971 737.41 992.701 738.74 993.509 740C994.232 741.127 995.037 742.222 996 743.153C997.191 744.304 998.579 745.25 1000 746.1C1000.95 746.668 1001.96 747.144 1003 747.523C1004.295 747.995 1005.637 748.366 1007 748.571C1008.98 748.868 1011 748.918 1013 748.825C1015.016 748.731 1017.035 748.472 1019 748.01C1020.713 747.607 1022.395 747.036 1024 746.313C1025.75 745.525 1027.419 744.544 1029 743.455C1030.493 742.425 1031.936 741.297 1033.205 740C1034.687 738.485 1035.999 736.791 1037.132 735C1038.326 733.112 1039.278 731.07 1040.119 729C1041.042 726.73 1041.785 724.381 1042.364 722C1042.922 719.701 1043.348 717.358 1043.539 715C1043.7 713.006 1043.696 710.991 1043.508 709C1043.286 706.638 1042.94 704.259 1042.216 702C1041.766 700.598 1041.192 699.202 1040.342 698C1038.899 695.959 1037.028 694.198 1035 692.737C1033.786 691.863 1032.402 691.226 1031 690.703C1029.391 690.104 1027.703 689.687 1026 689.465C1023.686 689.163 1021.33 689.219 1019 689.349C1017.658 689.423 1016.308 689.554 1015 689.863Z"/>
  </g>
</svg>
